<svg xmlns="http://www.w3.org/2000/svg" xmlns:xlink="http://www.w3.org/1999/xlink" width="500" zoomAndPan="magnify" viewBox="0 0 375 374.999991" height="500" preserveAspectRatio="xMidYMid meet" version="1.0"><defs><g/></defs><rect x="-37.5" width="450" fill="#ffffff" y="-37.499999" height="449.999989" fill-opacity="1"/><rect x="-37.5" width="450" fill="#ffffff" y="-37.499999" height="449.999989" fill-opacity="1"/><g fill="#000000" fill-opacity="1"><g transform="translate(102.953326, 223.299477)"><g><path d="M 90.617188 -2.128906 L 45.023438 -55.820312 L 90.191406 -111.496094 C 91.1875 -112.492188 90.476562 -113.628906 88.914062 -113.628906 L 65.761719 -113.628906 C 65.476562 -113.628906 64.625 -113.34375 64.484375 -113.203125 L 21.730469 -60.648438 L 21.730469 -112.351562 C 21.730469 -112.917969 21.164062 -113.628906 20.3125 -113.628906 L 1.5625 -113.628906 C 0.710938 -113.628906 0 -112.917969 0 -112.351562 L 0 -6.960938 C 0 -6.960938 27.695312 -38.347656 30.539062 -41.332031 L 63.632812 -0.425781 C 63.773438 -0.285156 64.625 0 64.910156 0 L 89.339844 0 C 90.761719 0 91.46875 -0.996094 90.617188 -2.128906 Z M 90.617188 -2.128906 "/></g></g></g><g fill="#000000" fill-opacity="1"><g transform="translate(193.811477, 273.282637)"><g><path d="M 52.125 -63.0625 C 44.03125 -66.898438 36.078125 -66.898438 35.367188 -66.898438 C 28.121094 -66.898438 21.164062 -71.160156 21.164062 -79.398438 C 21.164062 -88.488281 27.554688 -93.175781 35.367188 -93.175781 C 42.753906 -93.175781 49.003906 -89.339844 49.285156 -81.242188 C 49.285156 -80.816406 49.996094 -80.109375 50.847656 -80.109375 L 68.601562 -80.109375 C 69.597656 -80.109375 70.308594 -80.816406 70.164062 -81.242188 C 69.882812 -100.5625 54.824219 -113.628906 35.367188 -113.628906 C 17.1875 -113.628906 0 -100.703125 0 -79.398438 C 0 -66.1875 6.675781 -56.105469 18.464844 -50.707031 C 26.703125 -46.871094 34.371094 -46.871094 35.367188 -46.871094 C 41.757812 -46.585938 49.570312 -41.472656 49.570312 -33.09375 C 49.570312 -25.566406 42.894531 -20.453125 35.367188 -20.453125 C 35.367188 -20.453125 35.367188 -20.453125 35.226562 -20.453125 L 35.226562 0 C 35.367188 0 35.367188 0 35.367188 0 C 53.546875 0 70.589844 -11.789062 70.589844 -33.09375 C 70.589844 -46.445312 64.058594 -57.523438 52.125 -63.0625 Z M 52.125 -63.0625 "/></g></g></g><g fill="#000000" fill-opacity="1"><g transform="translate(114.519877, 253.911487)"><g><path d="M 6.984375 -10.03125 L 9.546875 -10.03125 L 6.046875 -3.640625 L 6.046875 0 L 3.5625 0 L 3.5625 -3.640625 L -0.03125 -10.03125 L 2.796875 -10.03125 L 4.8125 -5.84375 Z M 6.984375 -10.03125 "/></g></g></g><g fill="#000000" fill-opacity="1"><g transform="translate(132.789568, 253.911487)"><g><path d="M 9.875 -5.03125 C 9.875 -3.195312 9.5 -1.875 8.75 -1.0625 C 8.007812 -0.25 6.8125 0.15625 5.15625 0.15625 C 3.414062 0.15625 2.191406 -0.222656 1.484375 -0.984375 C 0.785156 -1.753906 0.4375 -3.101562 0.4375 -5.03125 C 0.4375 -6.851562 0.804688 -8.164062 1.546875 -8.96875 C 2.285156 -9.78125 3.488281 -10.1875 5.15625 -10.1875 C 6.894531 -10.1875 8.113281 -9.800781 8.8125 -9.03125 C 9.519531 -8.269531 9.875 -6.9375 9.875 -5.03125 Z M 3.25 -2.875 C 3.382812 -2.613281 3.585938 -2.425781 3.859375 -2.3125 C 4.128906 -2.207031 4.5625 -2.15625 5.15625 -2.15625 C 5.738281 -2.15625 6.164062 -2.207031 6.4375 -2.3125 C 6.707031 -2.425781 6.914062 -2.613281 7.0625 -2.875 C 7.164062 -3.09375 7.238281 -3.367188 7.28125 -3.703125 C 7.332031 -4.046875 7.359375 -4.488281 7.359375 -5.03125 C 7.359375 -5.570312 7.332031 -6.015625 7.28125 -6.359375 C 7.238281 -6.703125 7.164062 -6.984375 7.0625 -7.203125 C 6.925781 -7.472656 6.722656 -7.664062 6.453125 -7.78125 C 6.179688 -7.894531 5.75 -7.953125 5.15625 -7.953125 C 4.550781 -7.953125 4.113281 -7.894531 3.84375 -7.78125 C 3.570312 -7.664062 3.375 -7.472656 3.25 -7.203125 C 3.144531 -6.984375 3.066406 -6.703125 3.015625 -6.359375 C 2.960938 -6.015625 2.9375 -5.570312 2.9375 -5.03125 C 2.9375 -4.488281 2.960938 -4.046875 3.015625 -3.703125 C 3.066406 -3.367188 3.144531 -3.09375 3.25 -2.875 Z M 3.25 -2.875 "/></g></g></g><g fill="#000000" fill-opacity="1"><g transform="translate(151.811078, 253.911487)"><g><path d="M 6.8125 -4.21875 L 6.8125 -10.03125 L 9.296875 -10.03125 L 9.296875 -4.21875 C 9.296875 -2.757812 8.9375 -1.664062 8.21875 -0.9375 C 7.507812 -0.207031 6.441406 0.15625 5.015625 0.15625 C 3.503906 0.15625 2.40625 -0.1875 1.71875 -0.875 C 1.03125 -1.570312 0.6875 -2.6875 0.6875 -4.21875 L 0.6875 -10.03125 L 3.171875 -10.03125 L 3.171875 -4.21875 C 3.171875 -3.414062 3.296875 -2.867188 3.546875 -2.578125 C 3.796875 -2.296875 4.285156 -2.15625 5.015625 -2.15625 C 5.722656 -2.15625 6.195312 -2.296875 6.4375 -2.578125 C 6.6875 -2.867188 6.8125 -3.414062 6.8125 -4.21875 Z M 6.8125 -4.21875 "/></g></g></g><g fill="#000000" fill-opacity="1"><g transform="translate(170.512668, 253.911487)"><g><path d="M 3.25 -3.234375 L 3.25 0 L 0.765625 0 L 0.765625 -10.03125 L 4.4375 -10.03125 C 5.976562 -10.03125 7.070312 -9.769531 7.71875 -9.25 C 8.375 -8.726562 8.703125 -7.859375 8.703125 -6.640625 C 8.703125 -5.816406 8.523438 -5.144531 8.171875 -4.625 C 7.828125 -4.113281 7.304688 -3.738281 6.609375 -3.5 L 9.0625 0 L 6.078125 0 L 4 -3.234375 Z M 6.1875 -6.640625 C 6.1875 -7.066406 6.054688 -7.363281 5.796875 -7.53125 C 5.546875 -7.707031 5.09375 -7.796875 4.4375 -7.796875 L 3.25 -7.796875 L 3.25 -5.234375 L 4.4375 -5.234375 C 5.09375 -5.234375 5.546875 -5.335938 5.796875 -5.546875 C 6.054688 -5.753906 6.1875 -6.117188 6.1875 -6.640625 Z M 6.1875 -6.640625 "/></g></g></g><g fill="#000000" fill-opacity="1"><g transform="translate(115.492533, 275.661486)"><g><path d="M 4.578125 -3.75 L 2.546875 -4.21875 C 1.734375 -4.414062 1.179688 -4.710938 0.890625 -5.109375 C 0.597656 -5.503906 0.453125 -6.066406 0.453125 -6.796875 C 0.453125 -7.960938 0.753906 -8.816406 1.359375 -9.359375 C 1.972656 -9.910156 2.925781 -10.1875 4.21875 -10.1875 C 4.757812 -10.1875 5.234375 -10.164062 5.640625 -10.125 C 6.054688 -10.082031 6.441406 -10.007812 6.796875 -9.90625 L 6.796875 -7.6875 C 5.984375 -7.820312 5.425781 -7.898438 5.125 -7.921875 C 4.820312 -7.941406 4.503906 -7.953125 4.171875 -7.953125 C 3.722656 -7.953125 3.394531 -7.875 3.1875 -7.71875 C 2.988281 -7.570312 2.890625 -7.320312 2.890625 -6.96875 C 2.890625 -6.800781 2.921875 -6.671875 2.984375 -6.578125 C 3.054688 -6.492188 3.179688 -6.429688 3.359375 -6.390625 L 5.28125 -5.9375 C 5.832031 -5.8125 6.226562 -5.6875 6.46875 -5.5625 C 6.71875 -5.4375 6.921875 -5.28125 7.078125 -5.09375 C 7.242188 -4.882812 7.363281 -4.617188 7.4375 -4.296875 C 7.519531 -3.984375 7.5625 -3.597656 7.5625 -3.140625 C 7.5625 -1.972656 7.253906 -1.128906 6.640625 -0.609375 C 6.023438 -0.0976562 5.066406 0.15625 3.765625 0.15625 C 3.097656 0.15625 2.460938 0.113281 1.859375 0.03125 C 1.265625 -0.0390625 0.804688 -0.132812 0.484375 -0.25 L 0.484375 -2.609375 C 0.910156 -2.472656 1.414062 -2.363281 2 -2.28125 C 2.582031 -2.195312 3.171875 -2.15625 3.765625 -2.15625 C 4.234375 -2.15625 4.554688 -2.210938 4.734375 -2.328125 C 4.921875 -2.453125 5.015625 -2.691406 5.015625 -3.046875 C 5.015625 -3.265625 4.984375 -3.425781 4.921875 -3.53125 C 4.859375 -3.632812 4.742188 -3.707031 4.578125 -3.75 Z M 4.578125 -3.75 "/></g></g></g><g fill="#000000" fill-opacity="1"><g transform="translate(132.034635, 275.661486)"><g><path d="M 3.25 0 L 0.765625 0 L 0.765625 -10.03125 L 3.25 -10.03125 L 3.25 -6.203125 L 6.765625 -6.203125 L 6.765625 -10.03125 L 9.25 -10.03125 L 9.25 0 L 6.765625 0 L 6.765625 -3.96875 L 3.25 -3.96875 Z M 3.25 0 "/></g></g></g><g fill="#000000" fill-opacity="1"><g transform="translate(150.768212, 275.661486)"><g><path d="M 9.875 -5.03125 C 9.875 -3.195312 9.5 -1.875 8.75 -1.0625 C 8.007812 -0.25 6.8125 0.15625 5.15625 0.15625 C 3.414062 0.15625 2.191406 -0.222656 1.484375 -0.984375 C 0.785156 -1.753906 0.4375 -3.101562 0.4375 -5.03125 C 0.4375 -6.851562 0.804688 -8.164062 1.546875 -8.96875 C 2.285156 -9.78125 3.488281 -10.1875 5.15625 -10.1875 C 6.894531 -10.1875 8.113281 -9.800781 8.8125 -9.03125 C 9.519531 -8.269531 9.875 -6.9375 9.875 -5.03125 Z M 3.25 -2.875 C 3.382812 -2.613281 3.585938 -2.425781 3.859375 -2.3125 C 4.128906 -2.207031 4.5625 -2.15625 5.15625 -2.15625 C 5.738281 -2.15625 6.164062 -2.207031 6.4375 -2.3125 C 6.707031 -2.425781 6.914062 -2.613281 7.0625 -2.875 C 7.164062 -3.09375 7.238281 -3.367188 7.28125 -3.703125 C 7.332031 -4.046875 7.359375 -4.488281 7.359375 -5.03125 C 7.359375 -5.570312 7.332031 -6.015625 7.28125 -6.359375 C 7.238281 -6.703125 7.164062 -6.984375 7.0625 -7.203125 C 6.925781 -7.472656 6.722656 -7.664062 6.453125 -7.78125 C 6.179688 -7.894531 5.75 -7.953125 5.15625 -7.953125 C 4.550781 -7.953125 4.113281 -7.894531 3.84375 -7.78125 C 3.570312 -7.664062 3.375 -7.472656 3.25 -7.203125 C 3.144531 -6.984375 3.066406 -6.703125 3.015625 -6.359375 C 2.960938 -6.015625 2.9375 -5.570312 2.9375 -5.03125 C 2.9375 -4.488281 2.960938 -4.046875 3.015625 -3.703125 C 3.066406 -3.367188 3.144531 -3.09375 3.25 -2.875 Z M 3.25 -2.875 "/></g></g></g><g fill="#000000" fill-opacity="1"><g transform="translate(169.789722, 275.661486)"><g><path d="M 3.25 -2.8125 L 3.25 0 L 0.765625 0 L 0.765625 -10.03125 L 4.4375 -10.03125 C 5.976562 -10.03125 7.070312 -9.757812 7.71875 -9.21875 C 8.375 -8.6875 8.703125 -7.785156 8.703125 -6.515625 C 8.703125 -5.253906 8.359375 -4.320312 7.671875 -3.71875 C 6.984375 -3.113281 5.921875 -2.8125 4.484375 -2.8125 Z M 6.1875 -6.515625 C 6.1875 -6.984375 6.054688 -7.3125 5.796875 -7.5 C 5.546875 -7.695312 5.09375 -7.796875 4.4375 -7.796875 L 3.25 -7.796875 L 3.25 -4.984375 L 4.4375 -4.984375 C 5.101562 -4.984375 5.5625 -5.09375 5.8125 -5.3125 C 6.0625 -5.539062 6.1875 -5.941406 6.1875 -6.515625 Z M 6.1875 -6.515625 "/></g></g></g></svg>